<?xml version="1.0" encoding="utf-8"?>
<!-- Generator: Adobe Illustrator 25.3.0, SVG Export Plug-In . SVG Version: 6.00 Build 0)  -->
<svg version="1.1" id="Capa_1" xmlns="http://www.w3.org/2000/svg" xmlns:xlink="http://www.w3.org/1999/xlink" x="0px" y="0px"
	 viewBox="0 0 1080 1080" style="enable-background:new 0 0 1080 1080;" xml:space="preserve">
<style type="text/css">
	.st0{opacity:0.1;fill:#1C1918;}
	.st1{fill:#4C545B;}
	.st2{fill:#181B1E;}
	.st3{fill:#848484;}
	.st4{fill:#FFFFF3;}
	.st5{fill:#A0A09C;}
	.st6{fill:#686868;}
	.st7{fill:none;stroke:#EF757C;stroke-width:0.9781;stroke-miterlimit:10;}
	.st8{fill:#EF757C;}
	.st9{fill:#16333C;}
	.st10{fill:#333030;}
	.st11{fill:#1C1918;}
	.st12{fill:#6D6D6D;}
	.st13{fill:#D69F8A;}
	.st14{fill:#E6F9FF;}
	.st15{fill:#ADADAD;}
	.st16{fill:#D8CAC7;}
	.st17{fill:#D8EAEF;}
	.st18{fill:#FFBFA1;}
	.st19{fill:#222228;}
	.st20{fill:#664032;}
	.st21{fill:#BF6B6B;}
	.st22{fill:#723838;}
</style>
<g>
	<path class="st0" d="M1065.74,1039.09c0,10.03-81.58,18.15-182.2,18.15c-100.63,0-182.21-8.13-182.21-18.15
		c0-10.03,81.58-18.15,182.21-18.15C984.16,1020.93,1065.74,1029.06,1065.74,1039.09z"/>
	<path class="st0" d="M643.89,1039.09c0,10.03-110.51,18.15-246.82,18.15c-136.32,0-246.83-8.13-246.83-18.15
		c0-10.03,110.51-18.15,246.83-18.15C533.39,1020.93,643.89,1029.06,643.89,1039.09z"/>
	<rect x="402.69" y="290.91" class="st1" width="15.93" height="754.08"/>
	<rect x="402.69" y="290.91" class="st2" width="15.93" height="445.59"/>
	<g>
		<polygon class="st1" points="558.47,1032.53 550.08,1041.13 405.22,866.6 413.62,857.99 		"/>
		<polygon class="st1" points="262.83,1032.53 271.23,1041.13 416.09,866.6 407.69,857.99 		"/>
	</g>
	<rect x="382.17" y="841.97" class="st1" width="56.96" height="26.37"/>
	<g>
		<g>
			<path class="st3" d="M807.05,703.01H26.69l-12.4-13.96V178.8h792.75V703.01z M28.86,686.84h763.63V194.97H28.86V686.84z"/>
		</g>
		<g>
			<rect x="21.38" y="186.76" class="st4" width="765.34" height="494.37"/>
			<path class="st5" d="M793.84,689.05H14.26V178.86h779.58V689.05z M28.5,673.23h751.1V194.68H28.5V673.23z"/>
		</g>
		<polygon class="st3" points="33.95,661.01 33.95,197.86 767.02,197.86 780.79,197.86 780.79,190.72 27.31,190.72 27.31,673.18 
			33.95,673.18 		"/>
		<polygon class="st6" points="33.95,197.86 767.02,197.86 780.79,197.86 780.79,190.72 27.31,190.72 		"/>
		<polygon class="st6" points="14.3,687.07 14.3,689.05 26.69,703.01 807.05,703.01 793.78,687.07 		"/>
	</g>
	<polyline class="st7" points="127.3,486.08 228.54,522.81 315.31,398.85 424.82,424.1 519.86,325.39 629.37,378.19 697.55,272.59 	
		"/>
	<path class="st8" d="M115.78,484.71c0,7.64,5.58,13.84,12.46,13.84s12.46-6.2,12.46-13.84c0-7.65-5.58-13.84-12.46-13.84
		S115.78,477.06,115.78,484.71z"/>
	<path class="st8" d="M216.08,522.81c0,7.64,5.58,13.84,12.46,13.84c6.88,0,12.46-6.2,12.46-13.84c0-7.65-5.58-13.84-12.46-13.84
		C221.66,508.96,216.08,515.16,216.08,522.81z"/>
	<ellipse class="st8" cx="316.34" cy="397.56" rx="12.46" ry="13.84"/>
	<ellipse class="st8" cx="425.51" cy="423.93" rx="12.46" ry="13.84"/>
	<path class="st8" d="M507.97,325.06c0,7.64,5.58,13.84,12.46,13.84c6.88,0,12.46-6.2,12.46-13.84c0-7.65-5.58-13.84-12.46-13.84
		C513.55,311.21,507.97,317.41,507.97,325.06z"/>
	<path class="st8" d="M685.96,273.64c0,7.64,5.58,13.84,12.46,13.84c6.88,0,12.46-6.2,12.46-13.84c0-7.65-5.58-13.84-12.46-13.84
		C691.54,259.8,685.96,266,685.96,273.64z"/>
	<g>
		<g>
			<polygon class="st9" points="932.01,965.11 939.7,1011.27 957.62,1011.27 951.62,961.06 			"/>
			<path class="st10" d="M963.05,989.39c0,0,10.22,13.29,25.74,17.96c15.52,4.67,29.53,10.61,28.4,19.94c0,0-23.1,11.3-60.57-1.27
				v3.95l-24.6-1.08v-32.68l20.44,1.44l-1.51-3.23L963.05,989.39z"/>
			<g>
				<path class="st11" d="M972.92,1026.48c33.58,8.63,42.11-0.95,44.07-1.62c0.21,0.81,0.29,1.62,0.19,2.43
					c0,0-23.1,11.3-60.57-1.27v3.95l-24.6-1.08v-6.52C940.8,1022.91,948.16,1020.11,972.92,1026.48z"/>
			</g>
			<g>
				<path class="st11" d="M959.64,1008.43c0.35,0,0.69-0.17,0.9-0.48c5.04-7.52,10.68-9.62,10.73-9.64c0.56-0.2,0.85-0.82,0.65-1.38
					c-0.2-0.56-0.82-0.85-1.38-0.65c-0.26,0.09-6.36,2.36-11.79,10.47c-0.33,0.5-0.2,1.17,0.3,1.5
					C959.23,1008.37,959.44,1008.43,959.64,1008.43z"/>
			</g>
			<g>
				<path class="st11" d="M965.27,1010.96c0.35,0,0.69-0.17,0.9-0.48c5.04-7.52,10.68-9.62,10.73-9.64c0.56-0.2,0.85-0.82,0.65-1.38
					c-0.2-0.56-0.82-0.85-1.38-0.65c-0.26,0.09-6.36,2.36-11.79,10.47c-0.33,0.49-0.2,1.17,0.3,1.5
					C964.86,1010.9,965.07,1010.96,965.27,1010.96z"/>
			</g>
			<g>
				<path class="st11" d="M970.91,1013.45c0.35,0,0.69-0.17,0.9-0.48c5.01-7.47,10.68-9.62,10.73-9.64c0.56-0.2,0.85-0.82,0.64-1.38
					c-0.21-0.56-0.82-0.85-1.38-0.65c-0.26,0.09-6.36,2.36-11.79,10.47c-0.33,0.49-0.2,1.17,0.3,1.5
					C970.49,1013.4,970.7,1013.45,970.91,1013.45z"/>
			</g>
		</g>
		<g>
			<polygon class="st9" points="848.31,965.11 840.63,1011.27 822.71,1011.27 828.7,961.06 			"/>
			<path class="st10" d="M817.28,989.39c0,0-10.22,13.29-25.74,17.96c-15.52,4.67-31.23,10.61-30.1,19.94c0,0,24.8,11.3,62.27-1.27
				v3.95l24.6-1.08v-32.68l-20.44,1.44l1.51-3.23L817.28,989.39z"/>
			<g>
				<path class="st11" d="M802.31,1028.18c-23.57,3.71-38.7-2.65-40.67-3.32c-0.22,0.81-0.29,1.62-0.19,2.43
					c0,0,24.8,11.3,62.27-1.27v3.95l24.6-1.08v-8.22C839.53,1021.21,824.94,1024.62,802.31,1028.18z"/>
			</g>
			<g>
				<path class="st11" d="M820.69,1008.43c-0.35,0-0.69-0.17-0.9-0.48c-5.04-7.52-10.68-9.62-10.73-9.64
					c-0.56-0.2-0.85-0.82-0.65-1.38c0.2-0.56,0.82-0.85,1.38-0.65c0.26,0.09,6.36,2.36,11.79,10.47c0.33,0.5,0.2,1.17-0.3,1.5
					C821.1,1008.37,820.89,1008.43,820.69,1008.43z"/>
			</g>
			<g>
				<path class="st11" d="M815.05,1010.96c-0.35,0-0.69-0.17-0.9-0.48c-5.04-7.52-10.68-9.62-10.73-9.64
					c-0.56-0.2-0.85-0.82-0.65-1.38c0.2-0.56,0.82-0.85,1.38-0.65c0.26,0.09,6.36,2.36,11.79,10.47c0.33,0.49,0.2,1.17-0.3,1.5
					C815.47,1010.9,815.26,1010.96,815.05,1010.96z"/>
			</g>
			<g>
				<path class="st11" d="M809.42,1013.45c-0.35,0-0.69-0.17-0.9-0.48c-5.01-7.47-10.68-9.62-10.74-9.64
					c-0.56-0.2-0.85-0.82-0.64-1.38c0.21-0.56,0.82-0.85,1.38-0.65c0.26,0.09,6.36,2.36,11.79,10.47c0.33,0.49,0.2,1.17-0.3,1.5
					C809.84,1013.4,809.63,1013.45,809.42,1013.45z"/>
			</g>
		</g>
		<path class="st12" d="M927.65,596.28l18.66,222.89l18.7,163.24c0,0-9.07,12.47-43.08,6.8l-25.51-159.84l-20.41-151.91h-11.34
			l-9.64,311.75c0,0-14.74,11.34-41.94,1.13l3.4-401.31L927.65,596.28z"/>
		<polygon class="st13" points="864.68,375.88 866.21,439.19 904.38,422.13 903.18,356.93 		"/>
		<path class="st14" d="M803.23,422.81c0,0,3.68,113.28,11.01,170.78c0,0,28.05,12.56,72.74,10.74c31.57-1.29,40.66-8.04,40.66-8.04
			l51.55-191.29c0,0-29.05-6.03-77.16-5.97l-22.31,20.67c0,0-6.06-16.05-18.02-19.24c-18.13,1.25-37.93,3.42-59.07,6.91
			L803.23,422.81z"/>
		<g>
			<polygon class="st14" points="1017.37,523.79 979.62,404.73 940.69,418.16 982.12,546.15 			"/>
		</g>
		<g>
			<path class="st11" d="M830.87,604.5c-9.6-2.06-14.26-4.79-14.36-4.83c-2.81-0.93-2.45,1.79-2.76,4.68
				c-0.42,3.81,0.23,5.84,2.76,6.62c0.46,0.14,2.68,2.46,12.24,4.76C829.46,611.99,830.17,608.25,830.87,604.5z"/>
			<path class="st11" d="M899.69,607.56c-10.68,1.02-22.37,1.22-35.03,0.92c-9.76-0.23-18.52-1.25-25.87-2.48
				c0.23,3.9-0.28,7.77-0.94,11.63c7.49,1.35,16.43,2.43,26.57,2.67c4.12,0.1,8.15,0.11,12.09,0.04c8.82-0.16,16.95-0.64,24.58-1.53
				C900.26,615.13,899.76,611.38,899.69,607.56z"/>
			<path class="st11" d="M931,606.6c-0.54-2.86-0.88-5.39-3.69-4.44c-6.29,2.11-13.18,3.61-20.62,4.63c0.25,3.72,0.8,7.41,1.35,11.1
				c7.73-1.23,14.92-2.96,21.64-5.43C931.64,611.74,931.55,609.48,931,606.6z"/>
		</g>
		<path class="st15" d="M857.33,606.64l0.26,14.06l24.84,1.26l-0.28-15.15L857.33,606.64z M878.17,619.36l-16.42-0.83l-0.17-9.29
			l16.4,0.11L878.17,619.36z"/>
		<polygon class="st16" points="879.73,419.69 885.52,399.57 898.35,405.45 		"/>
		<polygon class="st16" points="878.08,401.32 879.73,419.69 869.22,406.69 		"/>
		<path class="st9" d="M889.3,406.6c0,0-6.56,1.54-15.08,0.55l-7.1,8.42l6.26,8.96l-24.32,141.55l18.7,18.81l22.89-16.34l-5.27-143
			l7.75-11.07L889.3,406.6z"/>
		<polygon class="st17" points="849.12,400.11 864.83,421.32 878.08,401.32 857.25,387.46 		"/>
		<polygon class="st17" points="916.55,397.29 896.58,420.15 885.52,399.57 908.53,384.66 		"/>
		<path class="st18" d="M896.47,218.19c36.26,8.27,35.29,33.18,35.29,33.18s-1.13,19.23-1.84,42.13c3.35-4.61,9.03-6.54,14.85-4.05
			c12.34,5.28,3.22,44.16-15.54,40.8c-0.81,10.86-1.87,19.31-3.26,22.24c-5.27,11.06-28.44,27.91-48.98,30.55
			c-20.54,2.63-46.35-11.06-46.35-35.29c0-24.23-0.53-103.22-0.53-103.22S836.43,204.5,896.47,218.19z"/>
		<g>
			<path class="st13" d="M863.03,288.23c-0.79,3.47-1.71,6.9-2.77,10.3c-1.03,3.4-2.22,6.76-3.54,10.07
				c-0.64,1.66-1.38,3.28-2.1,4.91c-0.79,1.6-1.55,3.21-2.45,4.75c-1.77,3.08-3.73,6.13-6.41,8.53l0-0.24
				c2.79,2.48,5.55,4.99,8.32,7.49c-2.85-2.41-5.71-4.81-8.53-7.25l-0.13-0.12l0.13-0.12c2.58-2.42,4.51-5.44,6.24-8.51
				c1.72-3.09,3.2-6.32,4.53-9.61c1.33-3.29,2.54-6.63,3.65-10C861.06,295.06,862.13,291.67,863.03,288.23z"/>
		</g>
		<path class="st19" d="M885.02,291.66c0,5.28,2.35,9.56,5.25,9.56s5.25-4.28,5.25-9.56c0-5.28-2.35-9.56-5.25-9.56
			S885.02,286.38,885.02,291.66z"/>
		<path class="st19" d="M840.78,293.76c0,5.28,2.35,9.56,5.25,9.56c2.9,0,5.25-4.28,5.25-9.56c0-5.28-2.35-9.56-5.25-9.56
			C843.13,284.2,840.78,288.48,840.78,293.76z"/>
		<g>
			<path class="st20" d="M876.46,269.8c2.26-1.49,4.76-2.6,7.35-3.42c2.6-0.81,5.34-1.25,8.1-1.12c2.74,0.17,5.53,0.94,7.79,2.55
				c2.31,1.54,4.02,3.79,5.2,6.2c-0.79-1.09-1.55-2.2-2.52-3.12c-0.44-0.5-0.96-0.91-1.45-1.35c-0.54-0.39-1.05-0.8-1.62-1.12
				c-2.24-1.38-4.83-2.06-7.45-2.21c-2.63-0.15-5.27,0.24-7.85,0.87c-1.29,0.32-2.57,0.72-3.82,1.18
				C878.92,268.7,877.68,269.23,876.46,269.8z"/>
		</g>
		<g>
			<path class="st20" d="M854.87,269.8c-0.97-0.58-1.97-1.12-3-1.57c-1.02-0.48-2.06-0.9-3.13-1.22c-2.12-0.66-4.35-1.07-6.52-0.81
				c-1.08,0.11-2.16,0.34-3.16,0.79c-1,0.43-1.91,1.05-2.77,1.74c-1.67,1.45-2.98,3.31-4.07,5.29c0.77-2.13,1.97-4.15,3.63-5.78
				c1.69-1.6,3.94-2.65,6.28-2.88c2.34-0.2,4.68,0.22,6.82,1.04C851.1,267.22,853.11,268.35,854.87,269.8z"/>
		</g>
		<path class="st20" d="M940.97,288.23c0,0,1.84-42.13,3.42-46.35c1.58-4.21,12.11-3.69,12.11-3.69s-3.69-45.29-47.93-47.4
			c0,0,15.8-4.74,30.55,8.43c0,0-22.65-34.76-68.47-22.65c0,0-27.91,6.85-31.6,22.65c0,0,3.69-16.33,20.54-23.7
			c0,0-36.87,11.59-36.87,40.03c0,22.65,7.9,26.86,7.9,26.86s7.9,5.27,26.86-5c18.96-10.27,44.76-10.27,52.66-4.48
			c7.9,5.79,6.06,22.91,6.06,22.91s-0.53,7.64,6.06,11.06l0.26,42.4l6.58-0.26l0.79-11.85
			C929.91,297.19,931.23,288.76,940.97,288.23z"/>
		<path class="st13" d="M943.1,296.14c-6.43-3.26-12.13,7.1-12.39,18.16c5.27-0.79,6.16,5.34,3.22,9.68
			C944.38,326.2,949.92,299.6,943.1,296.14z"/>
		<g>
			<polygon class="st14" points="772.99,535 838.75,437.88 802.64,407.36 732.65,524.27 			"/>
		</g>
		<path class="st21" d="M863.08,347.6c0.24,7.03,4.36,12.59,9.2,12.43c4.84-0.17,8.57-6,8.33-13.03c-0.24-7.03-4.36-12.59-9.2-12.43
			C866.57,334.74,862.84,340.57,863.08,347.6z"/>
		<path class="st22" d="M876.61,345.43c1.54,0.26,2.86,0.8,3.99,1.52c-0.26-7-4.36-12.54-9.19-12.37c-4.84,0.16-8.57,6-8.33,13.03
			c0.14,4.06,1.59,7.59,3.72,9.85C865.25,351.28,868.7,344.06,876.61,345.43z"/>
		<path class="st18" d="M1010.49,539.21c0,0-65.58,37.64-109.94,30.28l8.16-18.71c0,0,24.84-7.6,60.33-25.73
			C996.67,510.95,1010.49,539.21,1010.49,539.21z"/>
		<polygon class="st17" points="969.83,515.36 1018.24,519.7 1017.05,540.8 965.6,526.93 		"/>
		<path class="st18" d="M914.84,551.48c0,0,19.26,26.42-24.13,17.01c0,0-9.31,32.07-9.53,2.64c0,0-15.19,31.12-6.32-2.77
			c0,0-30.98,23.3,0.55-12.22c0,0,4.78-6.85,34-5.18L914.84,551.48z"/>
		<path class="st18" d="M877.69,554.31c0,0-38.13,16.42-1.11,7.24L877.69,554.31z"/>
	</g>
	<g>
		<g>
			
				<rect x="567.8" y="348.3" transform="matrix(0.6409 -0.7677 0.7677 0.6409 -143.0517 600.0427)" class="st11" width="3.93" height="209.21"/>
			<path class="st18" d="M753.72,563.21l-94.57-37.34c0,0-2.61,9.16-10.4,13.72c0,0-10.31,2.56-9.32-3.17c0,0-6.45,4.08-9.37-2.73
				c0,0-9.7,1.38-9.64-5.94c0,0-8.31,0.7-4.42-9.34c3.89-10.03,11.11-18.64,11.11-18.64l7.1-8.05l135.34,42.44L753.72,563.21z"/>
			<path class="st18" d="M657.83,514.33c0,0-1.75,7.78-13.71,6.44c-11.95-1.34-15.3-20.7-15.3-20.7s-16.58-11-10.76-14.68
				C623.89,481.71,653.65,500.68,657.83,514.33z"/>
		</g>
	</g>
	<polygon class="st17" points="776.79,535.67 738.65,505.12 729.31,519.26 757.45,559.6 	"/>
</g>
</svg>
