<?xml version="1.0" encoding="UTF-8" standalone="no"?>
<!-- Generator: Adobe Illustrator 25.0.1, SVG Export Plug-In . SVG Version: 6.00 Build 0)  -->

<svg
   version="1.1"
   id="Capa_1"
   x="0px"
   y="0px"
   viewBox="0 0 2160 2160"
   style="enable-background:new 0 0 2160 2160;"
   xml:space="preserve"
   sodipodi:docname="LogoGrisFondoBlanco.svg"
   inkscape:version="1.1.2 (b8e25be833, 2022-02-05)"
   xmlns:inkscape="http://www.inkscape.org/namespaces/inkscape"
   xmlns:sodipodi="http://sodipodi.sourceforge.net/DTD/sodipodi-0.dtd"
   xmlns="http://www.w3.org/2000/svg"
   xmlns:svg="http://www.w3.org/2000/svg"><defs
   id="defs73" /><sodipodi:namedview
   id="namedview71"
   pagecolor="#ffffff"
   bordercolor="#cccccc"
   borderopacity="1"
   inkscape:pageshadow="0"
   inkscape:pageopacity="1"
   inkscape:pagecheckerboard="0"
   showgrid="false"
   inkscape:zoom="0.23425926"
   inkscape:cx="898.57708"
   inkscape:cy="1135.4941"
   inkscape:window-width="1366"
   inkscape:window-height="715"
   inkscape:window-x="-8"
   inkscape:window-y="-8"
   inkscape:window-maximized="1"
   inkscape:current-layer="g68" />
<style
   type="text/css"
   id="style42">
	.st0{fill:#023047;}
	.st1{fill:#FFB703;}
	.st2{fill:#E2E2E2;}
</style>
<g
   id="g68">
	<g
   id="g52"
   transform="matrix(1.0127693,0,0,1.0127693,-19.009008,-13.314542)">
		<g
   id="g50">
			<path
   class="st2"
   d="m 1110.4,1042.7 c -33.6,0 -62.7,12 -86.4,35.6 -24,23.5 -36.3,52.3 -36.8,85.8 v 197 c 0,4.3 1.5,8.1 4.6,11.4 3.1,3 6.9,4.4 11.3,4.4 4.2,0 7.9,-1.5 11.2,-4.6 2.9,-3.2 4.4,-6.9 4.4,-11.3 v -195 c 0,-25.1 9.1,-47 27,-64.9 17.8,-17.8 39.5,-26.8 64.7,-26.8 25.1,0 46.9,9.1 64.7,27 17.8,17.8 26.8,39.5 26.8,64.7 0,25.1 -9,46.9 -26.8,64.7 -17.8,17.8 -39.5,26.8 -64.7,26.8 -22.2,0 -42,-7.2 -58.9,-21.2 -3.2,-2.8 -7.1,-4.1 -11.5,-3.7 -4.3,0.4 -8,2.2 -10.8,5.5 -2.8,3.4 -4,7.3 -3.6,11.7 0.4,4.2 2.3,7.8 5.7,10.5 22.7,19.2 49.3,29 79.1,29 33.7,0 63,-12.2 86.9,-36.3 24.1,-23.9 36.3,-53.2 36.3,-86.9 0,-33.9 -12.2,-63.2 -36.3,-87.1 -24,-24.1 -53.2,-36.3 -86.9,-36.3 z"
   id="path44" />
			<path
   class="st2"
   d="m 1411.9,1042.7 c -45.9,0 -85.7,16.5 -118.2,49 -32.5,32.5 -49,72.3 -49,118.2 0,45.8 16.5,85.5 49,118 32.5,32.5 72.3,49 118.2,49 45.8,0 85.5,-16.5 118,-49 32.5,-32.5 49,-72.2 49,-118 0,-45.9 -16.5,-85.7 -49,-118.2 -32.5,-32.5 -72.2,-49 -118,-49 z m 0,302.7 c -37.2,0 -69.4,-13.4 -95.8,-39.7 -26.5,-26.5 -39.9,-58.7 -39.9,-95.8 0,-37.2 13.4,-69.5 39.9,-96 26.3,-26.3 58.6,-39.7 95.8,-39.7 37.1,0 69.3,13.4 95.8,39.7 26.4,26.5 39.7,58.8 39.7,96 0,37.1 -13.4,69.3 -39.7,95.8 -26.5,26.4 -58.7,39.7 -95.8,39.7 z"
   id="path46" />
			<path
   class="st2"
   d="m 1778.4,1206.1 c -14.6,-8.5 -38.9,-13.8 -74.4,-16.1 -30.1,-2.1 -50.4,-6.1 -60.1,-11.9 -13.2,-7.7 -19.8,-23.4 -19.8,-46.5 0.1,-13.6 4.1,-26.1 11.8,-37.1 9.3,-13.5 21.8,-20.1 38.2,-20.1 h 103.4 c 4.4,0 8.1,-1.5 11.2,-4.6 3,-3.2 4.5,-6.9 4.5,-11 0,-4.3 -1.5,-8.1 -4.5,-11.4 -3,-3 -6.8,-4.5 -11.1,-4.5 h -103.4 c -24.1,0 -44.2,9.4 -59.7,28 -14.3,17 -21.7,37.4 -21.8,60.4 -0.2,36.1 12.3,61.4 36.9,75.1 14.4,7.9 38.1,12.8 72.5,15.2 31.2,2.1 52,6.3 61.9,12.6 13.6,8.4 20.2,25.6 19.5,50.9 -0.3,16.6 -5.6,30.4 -15.8,41.1 -12,12.8 -29.7,19.3 -52.8,19.3 h -106.2 c -4.4,0 -8.1,1.5 -11.1,4.5 -3.2,3.2 -4.8,6.9 -4.8,11.1 0,4.4 1.6,8.2 4.8,11.4 3,3 6.8,4.5 11.1,4.5 h 106.2 c 29.5,0 53.8,-8.3 72,-24.7 18.2,-16.6 27.7,-39 28.4,-66.4 0.7,-38.6 -11.6,-65.5 -36.9,-79.8 z"
   id="path48" />
		</g>
	</g>
	<path
   class="st2"
   d="M1101.1,846.5c0-0.1,0-0.1,0-0.2c0.2-3.8,0.3-7.6,0.3-11.5c0,0,0-0.1,0-0.1c0-0.1,0-0.1,0-0.2   c0-126.2-102.7-228.9-228.9-228.9c0,0-0.1,0-0.1,0c0,0-0.1,0-0.1,0c-61.2,0-119.7,24.5-162.6,67.8H402.2c-49.1,0-89.1,40-89.1,89.1   v702.6c0,49.1,40,89.1,89.1,89.1H812c49.1,0,89.1-40,89.1-89.1v-403c105.2-13.2,188.4-98.1,199.1-204.1c0-0.1,0-0.2,0-0.2   C1100.6,854.2,1100.9,850.4,1101.1,846.5z M812,1496.7H402.2c-17.4,0-31.5-14.1-31.5-31.5V762.6c0-17.4,14.1-31.5,31.5-31.5h266.3   c-15.9,31.1-24.9,66.3-24.9,103.5c0,2.3,0.1,4.6,0.2,6.9c0,0.6-0.2,1.1-0.2,1.7v507.4H469.4c-15.9,0-28.8,12.9-28.8,28.8   s12.9,28.8,28.8,28.8h199.4c0.6,0,1.2-0.1,1.9-0.2c0.6,0,1.2,0.2,1.9,0.2c15.9,0,28.8-12.9,28.8-28.8V1096V986.2V829.6h0.1   c2.2-74.8,52.5-137.8,121-158.8c0.1,0,0.2-0.1,0.3-0.1c2.4-0.7,4.9-1.4,7.4-2.1c0.4-0.1,0.9-0.2,1.3-0.3c2.2-0.6,4.5-1.1,6.8-1.5   c0.7-0.1,1.3-0.2,2-0.4c2.1-0.4,4.2-0.8,6.4-1.1c0.8-0.1,1.6-0.2,2.3-0.3c2.1-0.3,4.1-0.6,6.2-0.8c0.9-0.1,1.8-0.1,2.7-0.2   c2-0.2,4-0.3,6-0.4c1.5-0.1,3.1-0.1,4.7-0.1c1.3,0,2.7-0.1,4-0.1c94.5,0.1,171.4,76.9,171.4,171.5   c-0.1,84.7-61.9,155.1-142.8,168.7V873.8c0-15.9-12.9-28.8-28.8-28.8c-15.9,0-28.8,12.9-28.8,28.8v338.1c0,0.2,0.1,0.4,0.1,0.6   v252.6C843.5,1482.6,829.4,1496.7,812,1496.7z"
   id="path54" />
	<g
   id="g66"
   transform="matrix(2.3253734,0,0,2.3253734,-1822.3155,-1316.0543)">
		<path
   class="st2"
   d="m 1327.8,898.2 c 0.8,0.7 1.1,1.6 1.1,2.6 0,1 -0.4,1.9 -1.1,2.6 l -43.7,43.8 43.7,43.7 c 0.8,0.7 1.1,1.6 1.1,2.6 0,1 -0.4,1.9 -1.1,2.6 -0.7,0.8 -1.6,1.1 -2.6,1.1 -1,0 -1.9,-0.4 -2.6,-1.1 l -40,-39.9 v 37.6 c 0,1 -0.4,1.9 -1.1,2.7 -0.8,0.7 -1.6,1.1 -2.6,1.1 -1,0 -1.9,-0.4 -2.7,-1.1 -0.7,-0.8 -1.1,-1.7 -1.1,-2.7 v -93.3 c 0,-1 0.4,-1.9 1.1,-2.7 0.8,-0.7 1.7,-1.1 2.7,-1.1 1,0 1.9,0.4 2.6,1.1 0.7,0.8 1.1,1.7 1.1,2.7 v 37.6 l 40,-39.9 c 0.7,-0.8 1.6,-1.1 2.6,-1.1 1,-0.1 1.9,0.3 2.6,1.1 z"
   id="path56" />
		<path
   class="st2"
   d="m 1337.5,901.1 c 0,-1.2 0.4,-2.2 1.3,-3.1 0.9,-0.9 1.9,-1.3 3.1,-1.3 h 0.3 c 1.2,0 2.2,0.4 3.1,1.3 0.9,0.8 1.3,1.8 1.3,3.1 0,1.2 -0.4,2.2 -1.3,3 -0.9,0.9 -1.9,1.3 -3.1,1.3 h -0.3 c -1.2,0 -2.2,-0.4 -3.1,-1.3 -0.9,-0.8 -1.3,-1.8 -1.3,-3 z m 4.5,25.4 c 1,0 1.9,0.4 2.6,1.1 0.7,0.8 1.1,1.7 1.1,2.7 v 63.6 c 0,1 -0.4,1.9 -1.1,2.7 -0.8,0.7 -1.6,1.1 -2.6,1.1 -1,0 -1.9,-0.4 -2.7,-1.1 -0.7,-0.8 -1.1,-1.7 -1.1,-2.7 v -63.6 c 0,-1 0.4,-1.9 1.1,-2.7 0.7,-0.8 1.6,-1.1 2.7,-1.1 z"
   id="path58" />
		<path
   class="st2"
   d="m 1392.9,926.5 c 9.1,0 16.9,3.5 23.3,10.4 6.4,7 9.7,15.4 9.7,25.2 v 31.8 c 0,1 -0.4,1.9 -1.1,2.7 -0.8,0.7 -1.7,1.1 -2.7,1.1 -1,0 -1.9,-0.4 -2.6,-1.1 -0.7,-0.8 -1.1,-1.7 -1.1,-2.7 v -31.8 c 0,-7.8 -2.5,-14.4 -7.5,-19.9 -5,-5.5 -11,-8.2 -18.1,-8.2 -7,0 -13,2.7 -18,8.2 -5,5.5 -7.5,12.1 -7.5,19.8 v 31.8 c 0,1 -0.4,1.9 -1.1,2.7 -0.8,0.7 -1.6,1.1 -2.6,1.1 -1,0 -1.9,-0.4 -2.7,-1.1 -0.7,-0.8 -1.1,-1.7 -1.1,-2.7 v -63.6 c 0,-1 0.4,-1.9 1.1,-2.7 0.8,-0.7 1.7,-1.1 2.7,-1.1 1,0 1.9,0.4 2.6,1.1 0.7,0.8 1.1,1.7 1.1,2.7 v 9.2 c 6.8,-8.6 15.2,-12.9 25.6,-12.9 z"
   id="path60" />
		<path
   class="st2"
   d="m 1503.3,950.2 c 0.1,0.8 0,1.5 -0.1,2.1 -0.4,0.9 -1.1,1.6 -2.1,2 l -55.2,22.2 c 2.5,4.2 5.9,7.5 10,10 4.3,2.5 9,3.8 14.1,3.8 9.1,0 16.5,-3.6 22.1,-10.9 0.7,-0.8 1.5,-1.3 2.6,-1.4 1,-0.1 1.9,0.2 2.7,0.8 0.9,0.7 1.3,1.5 1.4,2.5 0.1,1 -0.1,2 -0.7,2.8 -7.2,9.1 -16.5,13.7 -28.1,13.7 -7.2,0 -13.9,-2 -19.9,-6 -5.8,-4 -10.1,-9.2 -12.9,-15.6 l -0.1,-0.1 c -1.8,-4.4 -2.8,-8.9 -2.8,-13.7 0,-9.8 3.5,-18.2 10.4,-25.2 7,-7 15.4,-10.4 25.2,-10.4 7.3,0 14,2.1 20,6.3 6.1,4.2 10.2,9 12.3,14.4 0.7,0.9 1,1.9 1.1,2.7 z m -61.5,11.9 c 0,2.5 0.4,5 1.1,7.5 l 51.8,-20.8 c -2.5,-4.5 -5.9,-8.1 -10.3,-10.8 -4.5,-2.7 -9.3,-4.1 -14.4,-4.1 -7.8,0 -14.4,2.7 -19.9,8.2 -5.5,5.6 -8.3,12.2 -8.3,20 z"
   id="path62" />
		<path
   class="st2"
   d="M 1521.9,933.9 V 962 c 0,7.7 2.7,14.3 8.2,19.8 5.5,5.5 12.1,8.2 19.9,8.2 1,0 1.9,0.4 2.6,1.1 0.7,0.8 1.1,1.6 1.1,2.6 0,1 -0.4,1.9 -1.1,2.7 -0.8,0.7 -1.6,1.1 -2.6,1.1 -9.8,0 -18.2,-3.5 -25.2,-10.4 -7,-6.9 -10.4,-15.3 -10.4,-25.1 v -63.7 c 0,-1 0.4,-1.9 1.1,-2.6 0.8,-0.8 1.7,-1.1 2.7,-1.1 1,0 1.9,0.4 2.6,1.1 0.7,0.7 1.1,1.6 1.1,2.6 v 28.1 h 28.1 c 1,0 1.9,0.4 2.6,1.1 0.7,0.8 1.1,1.7 1.1,2.7 0,1 -0.4,1.9 -1.1,2.6 -0.8,0.7 -1.6,1.1 -2.6,1.1 z"
   id="path64" />
	</g>
</g>
</svg>
